<svg xmlns="http://www.w3.org/2000/svg" width="1200" height="630" viewBox="0 0 1200 630">
  <defs>
    <linearGradient id="bg" x1="0" y1="0" x2="0" y2="1">
      <stop offset="0" stop-color="#ffffff"/>
      <stop offset="1" stop-color="#f4f7fb"/>
    </linearGradient>
  </defs>
  <rect width="1200" height="630" fill="url(#bg)"/>
  <rect x="0" y="624" width="1200" height="6" fill="#1479c9"/>
  <g transform="translate(600,196) scale(6.25) translate(-12,-12)">
    <path d="M12 2.5 4 5.5v6c0 5 3.4 8.4 8 10 4.6-1.6 8-5 8-10v-6L12 2.5Z" fill="#1479c9" opacity=".1"/>
    <path d="M12 2.5 4 5.5v6c0 5 3.4 8.4 8 10 4.6-1.6 8-5 8-10v-6L12 2.5Z" fill="none" stroke="#1479c9" stroke-width="1.4" stroke-linejoin="round"/>
    <path d="m8.4 12 2.5 2.5L15.8 9.4" fill="none" stroke="#1479c9" stroke-width="1.5" stroke-linecap="round" stroke-linejoin="round"/>
  </g>
  <text x="600" y="402" text-anchor="middle" font-family="-apple-system,'SF Pro Display','Helvetica Neue',Arial,sans-serif" font-size="98" font-weight="700" letter-spacing="-3" fill="#1d1d1f">Picket</text>
  <text x="600" y="460" text-anchor="middle" font-family="-apple-system,'SF Pro Text','Helvetica Neue',Arial,sans-serif" font-size="33" font-weight="400" fill="#6e6e73">Automatic security for every GitHub repo</text>
  <text x="600" y="548" text-anchor="middle" font-family="-apple-system,'SF Pro Text','Helvetica Neue',Arial,sans-serif" font-size="25" font-weight="500" letter-spacing="-.2" fill="#1479c9">Open source · MIT · nothing leaves your repos</text>
</svg>
